<?xml version="1.0" encoding="utf-8"?>
<!-- Generator: Adobe Illustrator 25.3.1, SVG Export Plug-In . SVG Version: 6.00 Build 0)  -->
<svg version="1.1" id="Calque_1" xmlns="http://www.w3.org/2000/svg" xmlns:xlink="http://www.w3.org/1999/xlink" x="0px" y="0px"
	 viewBox="0 0 1014 1018" style="enable-background:new 0 0 1014 1018;" xml:space="preserve">
<style type="text/css">
	.st0{fill-rule:evenodd;clip-rule:evenodd;fill:#3E4062;}
	.st1{opacity:0.5;fill:none;stroke:#878D92;enable-background:new    ;}
	.st2{fill:none;stroke:#878D92;}
</style>
<g transform="matrix(1 0 0 -1 0 1018)">
	<path class="st0" d="M507,214L507,214c162.4,0,294,131.6,294,294v2c0,162.4-131.6,294-294,294l0,0c-162.4,0-294-131.6-294-294v-2
		C213,345.6,344.6,214,507,214z"/>
	<path class="st1" d="M507,0.5L507,0.5c279.7,0,506.5,226.8,506.5,506.5v4c0,279.7-226.8,506.5-506.5,506.5l0,0
		C227.3,1017.5,0.5,790.7,0.5,511v-4C0.5,227.3,227.3,0.5,507,0.5z"/>
	<path class="st2" d="M507,171.5L507,171.5c185.8,0,336.5,150.7,336.5,336.5v2c0,185.8-150.7,336.5-336.5,336.5l0,0
		c-185.8,0-336.5-150.7-336.5-336.5v-2C170.5,322.2,321.2,171.5,507,171.5z"/>
</g>
</svg>
